<?xml version="1.0" encoding="utf-8" standalone="no"?>
<!DOCTYPE svg PUBLIC "-//W3C//DTD SVG 1.1//EN"
  "http://www.w3.org/Graphics/SVG/1.1/DTD/svg11.dtd">
<svg xmlns:xlink="http://www.w3.org/1999/xlink" width="460.8pt" height="345.6pt" viewBox="0 0 460.8 345.6" xmlns="http://www.w3.org/2000/svg" version="1.1">
 <metadata>
  <rdf:RDF xmlns:dc="http://purl.org/dc/elements/1.1/" xmlns:cc="http://creativecommons.org/ns#" xmlns:rdf="http://www.w3.org/1999/02/22-rdf-syntax-ns#">
   <cc:Work>
    <dc:type rdf:resource="http://purl.org/dc/dcmitype/StillImage"/>
    <dc:date>2023-01-15T16:54:39.687141</dc:date>
    <dc:format>image/svg+xml</dc:format>
    <dc:creator>
     <cc:Agent>
      <dc:title>Matplotlib v3.5.2, https://matplotlib.org/</dc:title>
     </cc:Agent>
    </dc:creator>
   </cc:Work>
  </rdf:RDF>
 </metadata>
 <defs>
  <style type="text/css">*{stroke-linejoin: round; stroke-linecap: butt}</style>
 </defs>
 <g id="figure_1">
  <g id="patch_1">
   <path d="M 0 345.6 
L 460.8 345.6 
L 460.8 0 
L 0 0 
z
" style="fill: #ffffff"/>
  </g>
  <g id="axes_1">
   <g id="LineCollection_1">
    <path d="M 247.245214 29.990083 
L 222.985974 117.060544 
" clip-path="url(#p48d8835a72)" style="fill: none; stroke: #000000"/>
    <path d="M 247.245214 29.990083 
L 189.089357 31.723804 
" clip-path="url(#p48d8835a72)" style="fill: none; stroke: #000000"/>
    <path d="M 222.985974 117.060544 
L 120.138527 169.917321 
" clip-path="url(#p48d8835a72)" style="fill: none; stroke: #000000"/>
    <path d="M 222.985974 117.060544 
L 290.575298 180.15409 
" clip-path="url(#p48d8835a72)" style="fill: none; stroke: #000000"/>
    <path d="M 222.985974 117.060544 
L 189.089357 31.723804 
" clip-path="url(#p48d8835a72)" style="fill: none; stroke: #000000"/>
    <path d="M 222.985974 117.060544 
L 159.4556 184.281247 
" clip-path="url(#p48d8835a72)" style="fill: none; stroke: #000000"/>
    <path d="M 222.985974 117.060544 
L 329.471704 165.323824 
" clip-path="url(#p48d8835a72)" style="fill: none; stroke: #000000"/>
    <path d="M 120.138527 169.917321 
L 136.888438 261.548844 
" clip-path="url(#p48d8835a72)" style="fill: none; stroke: #000000"/>
    <path d="M 120.138527 169.917321 
L 159.4556 184.281247 
" clip-path="url(#p48d8835a72)" style="fill: none; stroke: #000000"/>
    <path d="M 290.575298 180.15409 
L 321.310928 257.505584 
" clip-path="url(#p48d8835a72)" style="fill: none; stroke: #000000"/>
    <path d="M 290.575298 180.15409 
L 329.471704 165.323824 
" clip-path="url(#p48d8835a72)" style="fill: none; stroke: #000000"/>
    <path d="M 159.4556 184.281247 
L 136.888438 261.548844 
" clip-path="url(#p48d8835a72)" style="fill: none; stroke: #000000"/>
    <path d="M 329.471704 165.323824 
L 321.310928 257.505584 
" clip-path="url(#p48d8835a72)" style="fill: none; stroke: #000000"/>
    <path d="M 136.888438 261.548844 
L 39.986777 312.942775 
" clip-path="url(#p48d8835a72)" style="fill: none; stroke: #000000"/>
    <path d="M 136.888438 261.548844 
L 230.877296 315.609917 
" clip-path="url(#p48d8835a72)" style="fill: none; stroke: #000000"/>
    <path d="M 136.888438 261.548844 
L 229.634008 282.360789 
" clip-path="url(#p48d8835a72)" style="fill: none; stroke: #000000"/>
    <path d="M 230.877296 315.609917 
L 321.310928 257.505584 
" clip-path="url(#p48d8835a72)" style="fill: none; stroke: #000000"/>
    <path d="M 230.877296 315.609917 
L 229.634008 282.360789 
" clip-path="url(#p48d8835a72)" style="fill: none; stroke: #000000"/>
    <path d="M 229.634008 282.360789 
L 321.310928 257.505584 
" clip-path="url(#p48d8835a72)" style="fill: none; stroke: #000000"/>
    <path d="M 321.310928 257.505584 
L 420.813223 303.545881 
" clip-path="url(#p48d8835a72)" style="fill: none; stroke: #000000"/>
   </g>
   <g id="PathCollection_1">
    <defs>
     <path id="mc35ac749af" d="M 0 8.660254 
C 2.296726 8.660254 4.499694 7.747755 6.123724 6.123724 
C 7.747755 4.499694 8.660254 2.296726 8.660254 0 
C 8.660254 -2.296726 7.747755 -4.499694 6.123724 -6.123724 
C 4.499694 -7.747755 2.296726 -8.660254 0 -8.660254 
C -2.296726 -8.660254 -4.499694 -7.747755 -6.123724 -6.123724 
C -7.747755 -4.499694 -8.660254 -2.296726 -8.660254 0 
C -8.660254 2.296726 -7.747755 4.499694 -6.123724 6.123724 
C -4.499694 7.747755 -2.296726 8.660254 0 8.660254 
z
" style="stroke: #1f78b4"/>
    </defs>
    <g clip-path="url(#p48d8835a72)">
     <use xlink:href="#mc35ac749af" x="247.245214" y="29.990083" style="fill: #1f78b4; stroke: #1f78b4"/>
     <use xlink:href="#mc35ac749af" x="222.985974" y="117.060544" style="fill: #1f78b4; stroke: #1f78b4"/>
     <use xlink:href="#mc35ac749af" x="189.089357" y="31.723804" style="fill: #1f78b4; stroke: #1f78b4"/>
     <use xlink:href="#mc35ac749af" x="120.138527" y="169.917321" style="fill: #1f78b4; stroke: #1f78b4"/>
     <use xlink:href="#mc35ac749af" x="290.575298" y="180.15409" style="fill: #1f78b4; stroke: #1f78b4"/>
     <use xlink:href="#mc35ac749af" x="159.4556" y="184.281247" style="fill: #1f78b4; stroke: #1f78b4"/>
     <use xlink:href="#mc35ac749af" x="329.471704" y="165.323824" style="fill: #1f78b4; stroke: #1f78b4"/>
     <use xlink:href="#mc35ac749af" x="136.888438" y="261.548844" style="fill: #1f78b4; stroke: #1f78b4"/>
     <use xlink:href="#mc35ac749af" x="39.986777" y="312.942775" style="fill: #1f78b4; stroke: #1f78b4"/>
     <use xlink:href="#mc35ac749af" x="230.877296" y="315.609917" style="fill: #1f78b4; stroke: #1f78b4"/>
     <use xlink:href="#mc35ac749af" x="229.634008" y="282.360789" style="fill: #1f78b4; stroke: #1f78b4"/>
     <use xlink:href="#mc35ac749af" x="321.310928" y="257.505584" style="fill: #1f78b4; stroke: #1f78b4"/>
     <use xlink:href="#mc35ac749af" x="420.813223" y="303.545881" style="fill: #1f78b4; stroke: #1f78b4"/>
    </g>
   </g>
   <g id="text_1">
    <g clip-path="url(#p48d8835a72)">
     <!-- O0 -->
     <g transform="translate(238.704589 33.301333)scale(0.12 -0.12)">
      <defs>
       <path id="DejaVuSans-4f" d="M 2522 4238 
Q 1834 4238 1429 3725 
Q 1025 3213 1025 2328 
Q 1025 1447 1429 934 
Q 1834 422 2522 422 
Q 3209 422 3611 934 
Q 4013 1447 4013 2328 
Q 4013 3213 3611 3725 
Q 3209 4238 2522 4238 
z
M 2522 4750 
Q 3503 4750 4090 4092 
Q 4678 3434 4678 2328 
Q 4678 1225 4090 567 
Q 3503 -91 2522 -91 
Q 1538 -91 948 565 
Q 359 1222 359 2328 
Q 359 3434 948 4092 
Q 1538 4750 2522 4750 
z
" transform="scale(0.015625)"/>
       <path id="DejaVuSans-30" d="M 2034 4250 
Q 1547 4250 1301 3770 
Q 1056 3291 1056 2328 
Q 1056 1369 1301 889 
Q 1547 409 2034 409 
Q 2525 409 2770 889 
Q 3016 1369 3016 2328 
Q 3016 3291 2770 3770 
Q 2525 4250 2034 4250 
z
M 2034 4750 
Q 2819 4750 3233 4129 
Q 3647 3509 3647 2328 
Q 3647 1150 3233 529 
Q 2819 -91 2034 -91 
Q 1250 -91 836 529 
Q 422 1150 422 2328 
Q 422 3509 836 4129 
Q 1250 4750 2034 4750 
z
" transform="scale(0.015625)"/>
      </defs>
      <use xlink:href="#DejaVuSans-4f"/>
      <use xlink:href="#DejaVuSans-30" x="78.710938"/>
     </g>
    </g>
   </g>
   <g id="text_2">
    <g clip-path="url(#p48d8835a72)">
     <!-- C1 -->
     <g transform="translate(214.978786 120.371794)scale(0.12 -0.12)">
      <defs>
       <path id="DejaVuSans-43" d="M 4122 4306 
L 4122 3641 
Q 3803 3938 3442 4084 
Q 3081 4231 2675 4231 
Q 1875 4231 1450 3742 
Q 1025 3253 1025 2328 
Q 1025 1406 1450 917 
Q 1875 428 2675 428 
Q 3081 428 3442 575 
Q 3803 722 4122 1019 
L 4122 359 
Q 3791 134 3420 21 
Q 3050 -91 2638 -91 
Q 1578 -91 968 557 
Q 359 1206 359 2328 
Q 359 3453 968 4101 
Q 1578 4750 2638 4750 
Q 3056 4750 3426 4639 
Q 3797 4528 4122 4306 
z
" transform="scale(0.015625)"/>
       <path id="DejaVuSans-31" d="M 794 531 
L 1825 531 
L 1825 4091 
L 703 3866 
L 703 4441 
L 1819 4666 
L 2450 4666 
L 2450 531 
L 3481 531 
L 3481 0 
L 794 0 
L 794 531 
z
" transform="scale(0.015625)"/>
      </defs>
      <use xlink:href="#DejaVuSans-43"/>
      <use xlink:href="#DejaVuSans-31" x="69.824219"/>
     </g>
    </g>
   </g>
   <g id="text_3">
    <g clip-path="url(#p48d8835a72)">
     <!-- H9 -->
     <g transform="translate(180.75967 35.035054)scale(0.12 -0.12)">
      <defs>
       <path id="DejaVuSans-48" d="M 628 4666 
L 1259 4666 
L 1259 2753 
L 3553 2753 
L 3553 4666 
L 4184 4666 
L 4184 0 
L 3553 0 
L 3553 2222 
L 1259 2222 
L 1259 0 
L 628 0 
L 628 4666 
z
" transform="scale(0.015625)"/>
       <path id="DejaVuSans-39" d="M 703 97 
L 703 672 
Q 941 559 1184 500 
Q 1428 441 1663 441 
Q 2288 441 2617 861 
Q 2947 1281 2994 2138 
Q 2813 1869 2534 1725 
Q 2256 1581 1919 1581 
Q 1219 1581 811 2004 
Q 403 2428 403 3163 
Q 403 3881 828 4315 
Q 1253 4750 1959 4750 
Q 2769 4750 3195 4129 
Q 3622 3509 3622 2328 
Q 3622 1225 3098 567 
Q 2575 -91 1691 -91 
Q 1453 -91 1209 -44 
Q 966 3 703 97 
z
M 1959 2075 
Q 2384 2075 2632 2365 
Q 2881 2656 2881 3163 
Q 2881 3666 2632 3958 
Q 2384 4250 1959 4250 
Q 1534 4250 1286 3958 
Q 1038 3666 1038 3163 
Q 1038 2656 1286 2365 
Q 1534 2075 1959 2075 
z
" transform="scale(0.015625)"/>
      </defs>
      <use xlink:href="#DejaVuSans-48"/>
      <use xlink:href="#DejaVuSans-39" x="75.195312"/>
     </g>
    </g>
   </g>
   <g id="text_4">
    <g clip-path="url(#p48d8835a72)">
     <!-- C2 -->
     <g transform="translate(112.13134 173.228571)scale(0.12 -0.12)">
      <defs>
       <path id="DejaVuSans-32" d="M 1228 531 
L 3431 531 
L 3431 0 
L 469 0 
L 469 531 
Q 828 903 1448 1529 
Q 2069 2156 2228 2338 
Q 2531 2678 2651 2914 
Q 2772 3150 2772 3378 
Q 2772 3750 2511 3984 
Q 2250 4219 1831 4219 
Q 1534 4219 1204 4116 
Q 875 4013 500 3803 
L 500 4441 
Q 881 4594 1212 4672 
Q 1544 4750 1819 4750 
Q 2544 4750 2975 4387 
Q 3406 4025 3406 3419 
Q 3406 3131 3298 2873 
Q 3191 2616 2906 2266 
Q 2828 2175 2409 1742 
Q 1991 1309 1228 531 
z
" transform="scale(0.015625)"/>
      </defs>
      <use xlink:href="#DejaVuSans-43"/>
      <use xlink:href="#DejaVuSans-32" x="69.824219"/>
     </g>
    </g>
   </g>
   <g id="text_5">
    <g clip-path="url(#p48d8835a72)">
     <!-- N8 -->
     <g transform="translate(282.269048 183.46534)scale(0.12 -0.12)">
      <defs>
       <path id="DejaVuSans-4e" d="M 628 4666 
L 1478 4666 
L 3547 763 
L 3547 4666 
L 4159 4666 
L 4159 0 
L 3309 0 
L 1241 3903 
L 1241 0 
L 628 0 
L 628 4666 
z
" transform="scale(0.015625)"/>
       <path id="DejaVuSans-38" d="M 2034 2216 
Q 1584 2216 1326 1975 
Q 1069 1734 1069 1313 
Q 1069 891 1326 650 
Q 1584 409 2034 409 
Q 2484 409 2743 651 
Q 3003 894 3003 1313 
Q 3003 1734 2745 1975 
Q 2488 2216 2034 2216 
z
M 1403 2484 
Q 997 2584 770 2862 
Q 544 3141 544 3541 
Q 544 4100 942 4425 
Q 1341 4750 2034 4750 
Q 2731 4750 3128 4425 
Q 3525 4100 3525 3541 
Q 3525 3141 3298 2862 
Q 3072 2584 2669 2484 
Q 3125 2378 3379 2068 
Q 3634 1759 3634 1313 
Q 3634 634 3220 271 
Q 2806 -91 2034 -91 
Q 1263 -91 848 271 
Q 434 634 434 1313 
Q 434 1759 690 2068 
Q 947 2378 1403 2484 
z
M 1172 3481 
Q 1172 3119 1398 2916 
Q 1625 2713 2034 2713 
Q 2441 2713 2670 2916 
Q 2900 3119 2900 3481 
Q 2900 3844 2670 4047 
Q 2441 4250 2034 4250 
Q 1625 4250 1398 4047 
Q 1172 3844 1172 3481 
z
" transform="scale(0.015625)"/>
      </defs>
      <use xlink:href="#DejaVuSans-4e"/>
      <use xlink:href="#DejaVuSans-38" x="74.804688"/>
     </g>
    </g>
   </g>
   <g id="text_6">
    <g clip-path="url(#p48d8835a72)">
     <!-- H10 -->
     <g transform="translate(147.308412 187.592497)scale(0.12 -0.12)">
      <use xlink:href="#DejaVuSans-48"/>
      <use xlink:href="#DejaVuSans-31" x="75.195312"/>
      <use xlink:href="#DejaVuSans-30" x="138.818359"/>
     </g>
    </g>
   </g>
   <g id="text_7">
    <g clip-path="url(#p48d8835a72)">
     <!-- H12 -->
     <g transform="translate(317.324516 168.635074)scale(0.12 -0.12)">
      <use xlink:href="#DejaVuSans-48"/>
      <use xlink:href="#DejaVuSans-31" x="75.195312"/>
      <use xlink:href="#DejaVuSans-32" x="138.818359"/>
     </g>
    </g>
   </g>
   <g id="text_8">
    <g clip-path="url(#p48d8835a72)">
     <!-- C3 -->
     <g transform="translate(128.881251 264.860094)scale(0.12 -0.12)">
      <defs>
       <path id="DejaVuSans-33" d="M 2597 2516 
Q 3050 2419 3304 2112 
Q 3559 1806 3559 1356 
Q 3559 666 3084 287 
Q 2609 -91 1734 -91 
Q 1441 -91 1130 -33 
Q 819 25 488 141 
L 488 750 
Q 750 597 1062 519 
Q 1375 441 1716 441 
Q 2309 441 2620 675 
Q 2931 909 2931 1356 
Q 2931 1769 2642 2001 
Q 2353 2234 1838 2234 
L 1294 2234 
L 1294 2753 
L 1863 2753 
Q 2328 2753 2575 2939 
Q 2822 3125 2822 3475 
Q 2822 3834 2567 4026 
Q 2313 4219 1838 4219 
Q 1578 4219 1281 4162 
Q 984 4106 628 3988 
L 628 4550 
Q 988 4650 1302 4700 
Q 1616 4750 1894 4750 
Q 2613 4750 3031 4423 
Q 3450 4097 3450 3541 
Q 3450 3153 3228 2886 
Q 3006 2619 2597 2516 
z
" transform="scale(0.015625)"/>
      </defs>
      <use xlink:href="#DejaVuSans-43"/>
      <use xlink:href="#DejaVuSans-33" x="69.824219"/>
     </g>
    </g>
   </g>
   <g id="text_9">
    <g clip-path="url(#p48d8835a72)">
     <!-- O4 -->
     <g transform="translate(31.446152 316.254025)scale(0.12 -0.12)">
      <defs>
       <path id="DejaVuSans-34" d="M 2419 4116 
L 825 1625 
L 2419 1625 
L 2419 4116 
z
M 2253 4666 
L 3047 4666 
L 3047 1625 
L 3713 1625 
L 3713 1100 
L 3047 1100 
L 3047 0 
L 2419 0 
L 2419 1100 
L 313 1100 
L 313 1709 
L 2253 4666 
z
" transform="scale(0.015625)"/>
      </defs>
      <use xlink:href="#DejaVuSans-4f"/>
      <use xlink:href="#DejaVuSans-34" x="78.710938"/>
     </g>
    </g>
   </g>
   <g id="text_10">
    <g clip-path="url(#p48d8835a72)">
     <!-- C5 -->
     <g transform="translate(222.870109 318.921167)scale(0.12 -0.12)">
      <defs>
       <path id="DejaVuSans-35" d="M 691 4666 
L 3169 4666 
L 3169 4134 
L 1269 4134 
L 1269 2991 
Q 1406 3038 1543 3061 
Q 1681 3084 1819 3084 
Q 2600 3084 3056 2656 
Q 3513 2228 3513 1497 
Q 3513 744 3044 326 
Q 2575 -91 1722 -91 
Q 1428 -91 1123 -41 
Q 819 9 494 109 
L 494 744 
Q 775 591 1075 516 
Q 1375 441 1709 441 
Q 2250 441 2565 725 
Q 2881 1009 2881 1497 
Q 2881 1984 2565 2268 
Q 2250 2553 1709 2553 
Q 1456 2553 1204 2497 
Q 953 2441 691 2322 
L 691 4666 
z
" transform="scale(0.015625)"/>
      </defs>
      <use xlink:href="#DejaVuSans-43"/>
      <use xlink:href="#DejaVuSans-35" x="69.824219"/>
     </g>
    </g>
   </g>
   <g id="text_11">
    <g clip-path="url(#p48d8835a72)">
     <!-- H11 -->
     <g transform="translate(217.48682 285.672039)scale(0.12 -0.12)">
      <use xlink:href="#DejaVuSans-48"/>
      <use xlink:href="#DejaVuSans-31" x="75.195312"/>
      <use xlink:href="#DejaVuSans-31" x="138.818359"/>
     </g>
    </g>
   </g>
   <g id="text_12">
    <g clip-path="url(#p48d8835a72)">
     <!-- C6 -->
     <g transform="translate(313.30374 260.816834)scale(0.12 -0.12)">
      <defs>
       <path id="DejaVuSans-36" d="M 2113 2584 
Q 1688 2584 1439 2293 
Q 1191 2003 1191 1497 
Q 1191 994 1439 701 
Q 1688 409 2113 409 
Q 2538 409 2786 701 
Q 3034 994 3034 1497 
Q 3034 2003 2786 2293 
Q 2538 2584 2113 2584 
z
M 3366 4563 
L 3366 3988 
Q 3128 4100 2886 4159 
Q 2644 4219 2406 4219 
Q 1781 4219 1451 3797 
Q 1122 3375 1075 2522 
Q 1259 2794 1537 2939 
Q 1816 3084 2150 3084 
Q 2853 3084 3261 2657 
Q 3669 2231 3669 1497 
Q 3669 778 3244 343 
Q 2819 -91 2113 -91 
Q 1303 -91 875 529 
Q 447 1150 447 2328 
Q 447 3434 972 4092 
Q 1497 4750 2381 4750 
Q 2619 4750 2861 4703 
Q 3103 4656 3366 4563 
z
" transform="scale(0.015625)"/>
      </defs>
      <use xlink:href="#DejaVuSans-43"/>
      <use xlink:href="#DejaVuSans-36" x="69.824219"/>
     </g>
    </g>
   </g>
   <g id="text_13">
    <g clip-path="url(#p48d8835a72)">
     <!-- F7 -->
     <g transform="translate(413.544786 306.857131)scale(0.12 -0.12)">
      <defs>
       <path id="DejaVuSans-46" d="M 628 4666 
L 3309 4666 
L 3309 4134 
L 1259 4134 
L 1259 2759 
L 3109 2759 
L 3109 2228 
L 1259 2228 
L 1259 0 
L 628 0 
L 628 4666 
z
" transform="scale(0.015625)"/>
       <path id="DejaVuSans-37" d="M 525 4666 
L 3525 4666 
L 3525 4397 
L 1831 0 
L 1172 0 
L 2766 4134 
L 525 4134 
L 525 4666 
z
" transform="scale(0.015625)"/>
      </defs>
      <use xlink:href="#DejaVuSans-46"/>
      <use xlink:href="#DejaVuSans-37" x="57.519531"/>
     </g>
    </g>
   </g>
   <g id="text_14">
    <g clip-path="url(#p48d8835a72)">
     <!-- c : 0.27 -->
     <g transform="translate(224.751777 46.975755)scale(0.12 -0.12)">
      <defs>
       <path id="DejaVuSans-63" d="M 3122 3366 
L 3122 2828 
Q 2878 2963 2633 3030 
Q 2388 3097 2138 3097 
Q 1578 3097 1268 2742 
Q 959 2388 959 1747 
Q 959 1106 1268 751 
Q 1578 397 2138 397 
Q 2388 397 2633 464 
Q 2878 531 3122 666 
L 3122 134 
Q 2881 22 2623 -34 
Q 2366 -91 2075 -91 
Q 1284 -91 818 406 
Q 353 903 353 1747 
Q 353 2603 823 3093 
Q 1294 3584 2113 3584 
Q 2378 3584 2631 3529 
Q 2884 3475 3122 3366 
z
" transform="scale(0.015625)"/>
       <path id="DejaVuSans-20" transform="scale(0.015625)"/>
       <path id="DejaVuSans-3a" d="M 750 794 
L 1409 794 
L 1409 0 
L 750 0 
L 750 794 
z
M 750 3309 
L 1409 3309 
L 1409 2516 
L 750 2516 
L 750 3309 
z
" transform="scale(0.015625)"/>
       <path id="DejaVuSans-2e" d="M 684 794 
L 1344 794 
L 1344 0 
L 684 0 
L 684 794 
z
" transform="scale(0.015625)"/>
      </defs>
      <use xlink:href="#DejaVuSans-63"/>
      <use xlink:href="#DejaVuSans-20" x="54.980469"/>
      <use xlink:href="#DejaVuSans-3a" x="86.767578"/>
      <use xlink:href="#DejaVuSans-20" x="120.458984"/>
      <use xlink:href="#DejaVuSans-30" x="152.246094"/>
      <use xlink:href="#DejaVuSans-2e" x="215.869141"/>
      <use xlink:href="#DejaVuSans-32" x="247.65625"/>
      <use xlink:href="#DejaVuSans-37" x="311.279297"/>
     </g>
    </g>
   </g>
   <g id="text_15">
    <g clip-path="url(#p48d8835a72)">
     <!-- c : -0.02 -->
     <g transform="translate(198.327849 134.046217)scale(0.12 -0.12)">
      <defs>
       <path id="DejaVuSans-2d" d="M 313 2009 
L 1997 2009 
L 1997 1497 
L 313 1497 
L 313 2009 
z
" transform="scale(0.015625)"/>
      </defs>
      <use xlink:href="#DejaVuSans-63"/>
      <use xlink:href="#DejaVuSans-20" x="54.980469"/>
      <use xlink:href="#DejaVuSans-3a" x="86.767578"/>
      <use xlink:href="#DejaVuSans-20" x="120.458984"/>
      <use xlink:href="#DejaVuSans-2d" x="152.246094"/>
      <use xlink:href="#DejaVuSans-30" x="188.330078"/>
      <use xlink:href="#DejaVuSans-2e" x="251.953125"/>
      <use xlink:href="#DejaVuSans-30" x="283.740234"/>
      <use xlink:href="#DejaVuSans-32" x="347.363281"/>
     </g>
    </g>
   </g>
   <g id="text_16">
    <g clip-path="url(#p48d8835a72)">
     <!-- c : 0.59 -->
     <g transform="translate(166.59592 48.709476)scale(0.12 -0.12)">
      <use xlink:href="#DejaVuSans-63"/>
      <use xlink:href="#DejaVuSans-20" x="54.980469"/>
      <use xlink:href="#DejaVuSans-3a" x="86.767578"/>
      <use xlink:href="#DejaVuSans-20" x="120.458984"/>
      <use xlink:href="#DejaVuSans-30" x="152.246094"/>
      <use xlink:href="#DejaVuSans-2e" x="215.869141"/>
      <use xlink:href="#DejaVuSans-35" x="247.65625"/>
      <use xlink:href="#DejaVuSans-39" x="311.279297"/>
     </g>
    </g>
   </g>
   <g id="text_17">
    <g clip-path="url(#p48d8835a72)">
     <!-- c : -0.04 -->
     <g transform="translate(95.480402 186.902994)scale(0.12 -0.12)">
      <use xlink:href="#DejaVuSans-63"/>
      <use xlink:href="#DejaVuSans-20" x="54.980469"/>
      <use xlink:href="#DejaVuSans-3a" x="86.767578"/>
      <use xlink:href="#DejaVuSans-20" x="120.458984"/>
      <use xlink:href="#DejaVuSans-2d" x="152.246094"/>
      <use xlink:href="#DejaVuSans-30" x="188.330078"/>
      <use xlink:href="#DejaVuSans-2e" x="251.953125"/>
      <use xlink:href="#DejaVuSans-30" x="283.740234"/>
      <use xlink:href="#DejaVuSans-34" x="347.363281"/>
     </g>
    </g>
   </g>
   <g id="text_18">
    <g clip-path="url(#p48d8835a72)">
     <!-- c : -0.03 -->
     <g transform="translate(265.917173 197.139762)scale(0.12 -0.12)">
      <use xlink:href="#DejaVuSans-63"/>
      <use xlink:href="#DejaVuSans-20" x="54.980469"/>
      <use xlink:href="#DejaVuSans-3a" x="86.767578"/>
      <use xlink:href="#DejaVuSans-20" x="120.458984"/>
      <use xlink:href="#DejaVuSans-2d" x="152.246094"/>
      <use xlink:href="#DejaVuSans-30" x="188.330078"/>
      <use xlink:href="#DejaVuSans-2e" x="251.953125"/>
      <use xlink:href="#DejaVuSans-30" x="283.740234"/>
      <use xlink:href="#DejaVuSans-33" x="347.363281"/>
     </g>
    </g>
   </g>
   <g id="text_19">
    <g clip-path="url(#p48d8835a72)">
     <!-- c : 0.50 -->
     <g transform="translate(136.962162 201.266919)scale(0.12 -0.12)">
      <use xlink:href="#DejaVuSans-63"/>
      <use xlink:href="#DejaVuSans-20" x="54.980469"/>
      <use xlink:href="#DejaVuSans-3a" x="86.767578"/>
      <use xlink:href="#DejaVuSans-20" x="120.458984"/>
      <use xlink:href="#DejaVuSans-30" x="152.246094"/>
      <use xlink:href="#DejaVuSans-2e" x="215.869141"/>
      <use xlink:href="#DejaVuSans-35" x="247.65625"/>
      <use xlink:href="#DejaVuSans-30" x="311.279297"/>
     </g>
    </g>
   </g>
   <g id="text_20">
    <g clip-path="url(#p48d8835a72)">
     <!-- c : 0.50 -->
     <g transform="translate(306.978266 182.309496)scale(0.12 -0.12)">
      <use xlink:href="#DejaVuSans-63"/>
      <use xlink:href="#DejaVuSans-20" x="54.980469"/>
      <use xlink:href="#DejaVuSans-3a" x="86.767578"/>
      <use xlink:href="#DejaVuSans-20" x="120.458984"/>
      <use xlink:href="#DejaVuSans-30" x="152.246094"/>
      <use xlink:href="#DejaVuSans-2e" x="215.869141"/>
      <use xlink:href="#DejaVuSans-35" x="247.65625"/>
      <use xlink:href="#DejaVuSans-30" x="311.279297"/>
     </g>
    </g>
   </g>
   <g id="text_21">
    <g clip-path="url(#p48d8835a72)">
     <!-- c : 0.06 -->
     <g transform="translate(114.395001 278.534516)scale(0.12 -0.12)">
      <use xlink:href="#DejaVuSans-63"/>
      <use xlink:href="#DejaVuSans-20" x="54.980469"/>
      <use xlink:href="#DejaVuSans-3a" x="86.767578"/>
      <use xlink:href="#DejaVuSans-20" x="120.458984"/>
      <use xlink:href="#DejaVuSans-30" x="152.246094"/>
      <use xlink:href="#DejaVuSans-2e" x="215.869141"/>
      <use xlink:href="#DejaVuSans-30" x="247.65625"/>
      <use xlink:href="#DejaVuSans-36" x="311.279297"/>
     </g>
    </g>
   </g>
   <g id="text_22">
    <g clip-path="url(#p48d8835a72)">
     <!-- c : 0.81 -->
     <g transform="translate(17.493339 329.928447)scale(0.12 -0.12)">
      <use xlink:href="#DejaVuSans-63"/>
      <use xlink:href="#DejaVuSans-20" x="54.980469"/>
      <use xlink:href="#DejaVuSans-3a" x="86.767578"/>
      <use xlink:href="#DejaVuSans-20" x="120.458984"/>
      <use xlink:href="#DejaVuSans-30" x="152.246094"/>
      <use xlink:href="#DejaVuSans-2e" x="215.869141"/>
      <use xlink:href="#DejaVuSans-38" x="247.65625"/>
      <use xlink:href="#DejaVuSans-31" x="311.279297"/>
     </g>
    </g>
   </g>
   <g id="text_23">
    <g clip-path="url(#p48d8835a72)">
     <!-- c : -0.05 -->
     <g transform="translate(206.219171 332.59559)scale(0.12 -0.12)">
      <use xlink:href="#DejaVuSans-63"/>
      <use xlink:href="#DejaVuSans-20" x="54.980469"/>
      <use xlink:href="#DejaVuSans-3a" x="86.767578"/>
      <use xlink:href="#DejaVuSans-20" x="120.458984"/>
      <use xlink:href="#DejaVuSans-2d" x="152.246094"/>
      <use xlink:href="#DejaVuSans-30" x="188.330078"/>
      <use xlink:href="#DejaVuSans-2e" x="251.953125"/>
      <use xlink:href="#DejaVuSans-30" x="283.740234"/>
      <use xlink:href="#DejaVuSans-35" x="347.363281"/>
     </g>
    </g>
   </g>
   <g id="text_24">
    <g clip-path="url(#p48d8835a72)">
     <!-- c : 0.50 -->
     <g transform="translate(207.14057 299.346461)scale(0.12 -0.12)">
      <use xlink:href="#DejaVuSans-63"/>
      <use xlink:href="#DejaVuSans-20" x="54.980469"/>
      <use xlink:href="#DejaVuSans-3a" x="86.767578"/>
      <use xlink:href="#DejaVuSans-20" x="120.458984"/>
      <use xlink:href="#DejaVuSans-30" x="152.246094"/>
      <use xlink:href="#DejaVuSans-2e" x="215.869141"/>
      <use xlink:href="#DejaVuSans-35" x="247.65625"/>
      <use xlink:href="#DejaVuSans-30" x="311.279297"/>
     </g>
    </g>
   </g>
   <g id="text_25">
    <g clip-path="url(#p48d8835a72)">
     <!-- c : 0.06 -->
     <g transform="translate(298.81749 274.491256)scale(0.12 -0.12)">
      <use xlink:href="#DejaVuSans-63"/>
      <use xlink:href="#DejaVuSans-20" x="54.980469"/>
      <use xlink:href="#DejaVuSans-3a" x="86.767578"/>
      <use xlink:href="#DejaVuSans-20" x="120.458984"/>
      <use xlink:href="#DejaVuSans-30" x="152.246094"/>
      <use xlink:href="#DejaVuSans-2e" x="215.869141"/>
      <use xlink:href="#DejaVuSans-30" x="247.65625"/>
      <use xlink:href="#DejaVuSans-36" x="311.279297"/>
     </g>
    </g>
   </g>
   <g id="text_26">
    <g clip-path="url(#p48d8835a72)">
     <!-- c : 0.38 -->
     <g transform="translate(398.319786 320.531553)scale(0.12 -0.12)">
      <use xlink:href="#DejaVuSans-63"/>
      <use xlink:href="#DejaVuSans-20" x="54.980469"/>
      <use xlink:href="#DejaVuSans-3a" x="86.767578"/>
      <use xlink:href="#DejaVuSans-20" x="120.458984"/>
      <use xlink:href="#DejaVuSans-30" x="152.246094"/>
      <use xlink:href="#DejaVuSans-2e" x="215.869141"/>
      <use xlink:href="#DejaVuSans-33" x="247.65625"/>
      <use xlink:href="#DejaVuSans-38" x="311.279297"/>
     </g>
    </g>
   </g>
  </g>
 </g>
 <defs>
  <clipPath id="p48d8835a72">
   <rect x="0" y="0" width="460.8" height="345.6"/>
  </clipPath>
 </defs>
</svg>
